<?xml version="1.0" encoding="UTF-8" standalone="no"?>
<!-- Created with Inkscape (http://www.inkscape.org/) -->

<svg
   xmlns:dc="http://purl.org/dc/elements/1.1/"
   xmlns:cc="http://creativecommons.org/ns#"
   xmlns:rdf="http://www.w3.org/1999/02/22-rdf-syntax-ns#"
   xmlns:svg="http://www.w3.org/2000/svg"
   xmlns="http://www.w3.org/2000/svg"
   xmlns:sodipodi="http://sodipodi.sourceforge.net/DTD/sodipodi-0.dtd"
   xmlns:inkscape="http://www.inkscape.org/namespaces/inkscape"
   width="208.61984mm"
   height="105.98158mm"
   viewBox="0 0 739.20417 375.52529"
   id="svg2"
   version="1.1"
   inkscape:version="0.91 r13725"
   sodipodi:docname="vanOoijen_bb17_banner.svg">
  <defs
     id="defs4">
    <clipPath
       id="clipPath4403"
       clipPathUnits="userSpaceOnUse">
      <path
         inkscape:connector-curvature="0"
         id="path4405"
         d="m 63.156,738.255 56.636,0 0,-56.636 -56.636,0 0,56.636 z" />
    </clipPath>
  </defs>
  <sodipodi:namedview
     id="base"
     pagecolor="#ffffff"
     bordercolor="#666666"
     borderopacity="1.0"
     inkscape:pageopacity="0.0"
     inkscape:pageshadow="2"
     inkscape:zoom="0.98994949"
     inkscape:cx="317.93194"
     inkscape:cy="164.88819"
     inkscape:document-units="px"
     inkscape:current-layer="layer1"
     showgrid="false"
     inkscape:window-width="1440"
     inkscape:window-height="783"
     inkscape:window-x="0"
     inkscape:window-y="1"
     inkscape:window-maximized="1"
     showborder="false"
     fit-margin-top="8"
     fit-margin-left="8"
     fit-margin-right="8"
     fit-margin-bottom="8" />
  <metadata
     id="metadata7">
    <rdf:RDF>
      <cc:Work
         rdf:about="">
        <dc:format>image/svg+xml</dc:format>
        <dc:type
           rdf:resource="http://purl.org/dc/dcmitype/StillImage" />
        <dc:title></dc:title>
      </cc:Work>
    </rdf:RDF>
  </metadata>
  <g
     inkscape:label="Layer 1"
     inkscape:groupmode="layer"
     id="layer1"
     transform="translate(-36.297229,-9.0545476)">
    <path
       d="m 64.643686,337.46269 682.511254,0 0,-3.685 -682.511254,0 0,3.685 z"
       style="fill:#a7a5a6;fill-opacity:1;fill-rule:nonzero;stroke:none"
       id="path4165"
       inkscape:connector-curvature="0" />
    <text
       style="font-variant:normal;font-weight:normal;font-size:22.5px;font-family:AdvOT1ab0d708;-inkscape-font-specification:AdvOT1ab0d708;writing-mode:lr-tb;fill:#231f20;fill-opacity:1;fill-rule:nonzero;stroke:none"
       id="text4169"
       x="64.643562"
       y="191.19531">
      <tspan
         x="64.643562 72.363312 86.428062 98.850311 113.83756 122.02981 129.05206 136.7718 143.79407 155.04631 168.34381 176.53606 183.5583 196.67807 217.31956 230.4393 243.82681 257.89157 264.91382 272.63354 280.3533 292.77557 302.13782 314.70856 329.6958 337.88806 344.91031 358.03006 365.05231 372.07455 390.90482 403.32706 417.39182 431.45657 440.81879 453.24106 464.83307 476.3103 488.73257 508.42007 522.4848 534.90704 548.9718 557.16406 564.18628 578.25104 590.67328 607.75305 614.77307"
         y="191.19531"
         sodipodi:role="line"
         id="tspan4171">Identificationofdifferentiallyexpressedpeptidesin</tspan>
      <tspan
         x="64.643562 79.633064 86.657562 99.532059 114.52156 123.66106 131.85556 146.84506 156.20956 169.33156 184.32106 197.42506 212.41455 226.48155 241.47107 255.33781 269.40482 278.76932 291.89133 300.08582 312.51031 325.63232 348.13681 355.16132 366.4158 383.55182 397.6188 410.74081 418.93533"
         y="224.92731"
         sodipodi:role="line"
         id="tspan4173">high-throughputproteomicsdata</tspan>
    </text>
    <text
       style="font-variant:normal;font-weight:normal;font-size:16.25px;font-family:AdvOTbf7bbdaa;-inkscape-font-specification:AdvOTbf7bbdaa;writing-mode:lr-tb;fill:#231f20;fill-opacity:1;fill-rule:nonzero;stroke:none"
       id="text4175"
       x="64.643562"
       y="257.02994">
      <tspan
         x="64.643562 79.528564 84.598564 92.886063 103.70856 108.77856 117.74857 126.93306 136.22806 144.72031 154.0153 163.31032 178.2392 190.4267 200.06294 205.13293 210.20294 219.17293 230.11244 238.54619 250.21368 255.28369 263.5712 269.82742 279.46368 290.34793 299.31793 307.78094 312.85095 322.48718 333.30969 342.27969 350.79468 365.67969 374.97467 381.73468 386.80469 397.6272 408.26608 420.45517 425.52518 429.91269 440.91394 449.36719 458.6622 463.73218 468.80219 478.27594 487.24594 503.49594 512.79095 523.61346 531.73846 540.28589 552.29468 557.36469 566.83844 575.80841 582.56842 593.00909 598.0791 602.46655 612.94781 621.42542 633.93793 642.90796 651.19543 660.66919"
         y="257.02994"
         sodipodi:role="line"
         id="tspan4177">MichielP.vanOoijen,VictorL.Jong,MarinusJ.C.Eijkemans,AlbertJ.R.Heck,</tspan>
      <tspan
         x="64.643562 76.652313 83.412308 94.23481 108.01319 119.01443 127.43031 139.43906 150.26157 160.41782 169.38782 183.42781 192.39781 201.48318 209.91693 222.77069 232.06569 242.22194 247.29193 258.11444 271.21518 283.22394 291.69507 301.85132 306.92133 317.7438 327.03882 336.2688 345.56381 356.38629 370.63754 383.15005 392.12006 402.94254 412.41632 419.01379 424.0838 433.37878 448.37595 457.67093 466.96594 481.89481 492.05106 501.02106 515.9093 528.42181 537.7168"
         y="279.49393"
         sodipodi:role="line"
         id="tspan4179">ArnoC.Andeweg,NadineA.BinaiandHenk-JanvandenHam</tspan>
    </text>
    <text
       style="font-variant:normal;font-weight:normal;font-size:8.12512493px;font-family:AdvOTbf7bbdaa;-inkscape-font-specification:AdvOTbf7bbdaa;writing-mode:lr-tb;fill:#231f20;fill-opacity:1;fill-rule:nonzero;stroke:none"
       id="text4181"
       x="64.643562"
       y="301.88818">
      <tspan
         x="64.643562 70.144272 74.962471 78.342522 81.722572 86.207642 90.270203 95.348404 100.16661 105.57794 110.65614 113.19118 118.60252 125.65838 130.30594 135.54665 138.67482 144.08615 148.90436 152.28441 157.12212 163.37845 167.86353 173.27486 178.01181 181.31061 183.84564 188.49323 196.52328 201.17085 205.81842 213.88504 218.96324 223.44832 231.53038 237.78671 242.4343 250.55942 255.41174 261.50558 265.99066 271.06888 276.81332 282.64716 285.18219 288.56226 293.38046 297.44302 301.58682 304.12186 308.60693 314.01828 318.16208 322.64716 327.4816 332.12918 335.50922 340.1568 344.21936 352.34448 357.58517 364.2608 371.7034 377.20413 382.04752 386.69507 388.88885 394.9827 397.17648 402.25467 407.07288 414.43265 418.91769 423.40274 427.88785 434.98352 439.46857 443.95364 448.43872 455.53436 461.0351 469.70782 474.94855 479.76678 482.89493 486.0231 490.50815 493.88821 498.9664 503.61401 511.73914 516.54919 521.96051 527.37189 534.47809 540.90509 545.39014 548.51831 553.92963 558.41473 561.7948 564.32977 568.97742 574.38867 579.46692 583.52948 588.33551 593.74683 598.23187 600.76697 602.96069 607.82361 612.64178 617.12689 624.26398 628.74902 635.88617 640.37122 644.85632 651.97229 656.45734 660.94244 665.42749 669.9126"
         y="301.88818"
         sodipodi:role="line"
         id="tspan4183">Correspondingauthor:Henk-JanvandenHam,DeptViroscience,ErasmusMC,P.O.Box20403000CARotterdam,TheNetherlands.Tel.:+31107044099;</tspan>
      <tspan
         x="64.643562 69.128632 73.776199 78.513153 82.713837 87.532036 92.017105 98.516396 103.00146 109.50076 113.98582 118.47089 124.94905 129.43411 133.91919 138.40425 142.88933 147.12982 151.7774 155.0762 163.20132 167.84889 170.38394 172.91898 177.10585 182.5172 184.71097 187.24602 189.43979 194.08737 198.73494 204.14627 209.22447 213.70953 219.12086 224.53221 229.17979 237.3049 243.73189 248.21693 251.59698 256.24457 260.22995 268.35507 273.59576 277.65833 285.78348 289.92728 292.12106 297.53238"
         y="313.79395"
         sodipodi:role="line"
         id="tspan4185">Fax:+31107044760;E-mail:h.j.vandenham@erasmusmc.nl</tspan>
    </text>
    <text
       style="font-variant:normal;font-weight:normal;font-size:9.99987507px;font-family:AdvOT1ab0d708;-inkscape-font-specification:AdvOT1ab0d708;writing-mode:lr-tb;fill:#231f20;fill-opacity:1;fill-rule:nonzero;stroke:none"
       id="text4227"
       x="64.644562"
       y="354.15332">
      <tspan
         x="64.644562 71.614471 77.134407 85.408302 94.258194 100.08812 104.24807 110.49799 115.59792"
         y="354.15332"
         sodipodi:role="line"
         id="tspan4229">Keywords:</tspan>
    </text>
    <text
       style="font-variant:normal;font-weight:normal;font-size:9.99987507px;font-family:AdvOTbf7bbdaa;-inkscape-font-specification:AdvOTbf7bbdaa;writing-mode:lr-tb;fill:#231f20;fill-opacity:1;fill-rule:nonzero;stroke:none"
       id="text4231"
       x="120.91186"
       y="354.15332">
      <tspan
         x="120.91186 125.9118 129.76175 135.48167 139.33163 142.45158 147.45152 151.30148 154.42145 159.52138 165.13231 170.80124 176.52116 183.18108 188.90102 192.02097 197.74089 202.61984 205.73979 210.73975 215.94267 222.60258 225.72255 231.24248 237.9024 241.96236 245.8123 252.47221 256.63217 262.5621 268.88 274.39993 281.05984 287.30978 293.7597 300.06161 306.31155 310.4715 316.40143 320.25137 325.7713 331.7012 341.70111 344.70706 349.80698 354.80695 360.01389 365.53381 372.30371 376.36368 385.52353 391.35349 394.99344 404.0213 409.85123 415.00519 421.2551 426.77502 433.02496 436.87491 439.99487 446.24481 451.76471 455.82465 458.94461 464.32858 470.04849 475.56842 481.19434 487.44427 493.16422 497.01416 502.7341 507.91104 511.03101 521.03082 527.28076 533.73071 537.58063 543.3006 547.02954 550.14948 556.07941"
         y="354.15332"
         sodipodi:role="line"
         id="tspan4233">statisticalanalysis;high-throughputproteomics;LC-MS/MS;peptide-leveldata;imputation</tspan>
    </text>
    <path
       d="m 379.64369,57.47144 367.51125,0 0,-2.480375 -367.51125,0 0,2.480375 z"
       style="fill:#deddde;fill-opacity:1;fill-rule:nonzero;stroke:none"
       id="path4379"
       inkscape:connector-curvature="0" />
    <path
       d="m 379.64369,97.08519 367.51125,0 0,-2.48025 -367.51125,0 0,2.48025 z"
       style="fill:#deddde;fill-opacity:1;fill-rule:nonzero;stroke:none"
       id="path4381"
       inkscape:connector-curvature="0" />
    <text
       style="font-variant:normal;font-weight:normal;font-size:9.99987507px;font-family:AdvOT8163c0db;-inkscape-font-specification:AdvOT8163c0db;writing-mode:lr-tb;fill:#231f20;fill-opacity:1;fill-rule:nonzero;stroke:none"
       id="text4383"
       x="379.64343"
       y="44.998566">
      <tspan
         x="379.64343 385.47336 389.53333 392.23328 396.81323 400.03317 402.73315 408.45309 413.65903 420.74591 423.44589 431.65979 437.48972 440.18967 445.18961 447.88959 453.60953 456.82947 461.82941 465.88934 474.52927 479.91919 483.34915 486.0491 490.20905"
         y="44.998566"
         sodipodi:role="line"
         id="tspan4385">BriefingsinBioinformatics</tspan>
    </text>
    <text
       style="font-variant:normal;font-weight:normal;font-size:9.99987507px;font-family:AdvOTbf7bbdaa;-inkscape-font-specification:AdvOTbf7bbdaa;writing-mode:lr-tb;fill:#231f20;fill-opacity:1;fill-rule:nonzero;stroke:none"
       id="text4387"
       x="494.79999"
       y="44.998566">
      <tspan
         x="494.79999 499.97293 505.49286 511.01279 516.53271 522.05267 527.18561 532.70551 537.70544 543.2254"
         y="44.998566"
         sodipodi:role="line"
         id="tspan4389">,2017,1–11</tspan>
    </text>
    <text
       style="font-variant:normal;font-weight:normal;font-size:8.12512493px;font-family:AdvOT1ab0d708;-inkscape-font-specification:AdvOT1ab0d708;writing-mode:lr-tb;fill:#231f20;fill-opacity:1;fill-rule:nonzero;stroke:none"
       id="text4391"
       x="379.64343"
       y="72.707191">
      <tspan
         x="379.64343 384.72165 389.45859 391.99362 396.36737 401.10434 405.84128 408.20569 412.94263 417.6796 422.41653 427.15347 430.11102 435.01862 437.55365 442.46121 445.41876 450.32632 455.23392 460.3121 465.04907 469.78601"
         y="72.707191"
         sodipodi:role="line"
         id="tspan4393">doi:10.1093/bib/bbx031</tspan>
    </text>
    <text
       style="font-variant:normal;font-weight:normal;font-size:8.12512493px;font-family:AdvOTbf7bbdaa;-inkscape-font-specification:AdvOTbf7bbdaa;writing-mode:lr-tb;fill:#231f20;fill-opacity:1;fill-rule:nonzero;stroke:none"
       id="text4395"
       x="379.64343"
       y="84.612938">
      <tspan
         x="379.64343 384.29102 388.93857 394.01678 398.50186"
         y="84.612938"
         sodipodi:role="line"
         id="tspan4397">Paper</tspan>
    </text>
    <g
       id="g4399"
       transform="matrix(1.25,0,0,-1.25,-14.301314,960.80144)">
      <g
         id="g4401"
         clip-path="url(#clipPath4403)">
        <path
           d="m 63.156,681.619 56.636,0 0,56.636 -56.636,0 0,-56.636 z"
           style="fill:#706d6e;fill-opacity:1;fill-rule:nonzero;stroke:none"
           id="path4407"
           inkscape:connector-curvature="0" />
      </g>
    </g>
    <g
       id="g4409"
       transform="matrix(1.25,0,0,-1.25,120.94369,92.63144)">
      <path
         d="m 0,0 c -0.134,0 -0.297,-0.015 -0.447,-0.059 l 0,-4.605 c 0,-0.789 0.313,-0.983 1.103,-0.983 1.609,0 2.472,1.207 2.472,2.727 C 3.128,-1.043 1.788,0 0,0 Z M 3.486,-4.857 C 2.816,-5.542 1.832,-5.945 0.864,-5.945 L -2.503,-5.96 c -0.015,0 -0.03,0 -0.045,0 l -0.03,0 c -0.074,-0.015 -0.194,0 -0.267,0 -0.805,0.015 -1.118,0.06 -1.818,0.492 -1.192,0.745 -1.729,1.58 -2.578,2.696 0.686,0 1.669,0.641 1.669,1.386 0,1.014 -1.013,1.386 -1.863,1.386 l -0.014,0 c -0.016,-1.549 -0.046,-3.084 -0.046,-4.634 0,-0.953 0.313,-0.924 1.223,-1.043 l 0,-0.283 -2.325,0 c 0.016,1.624 0.06,3.233 0.06,4.842 0,0.239 0,0.85 -0.209,1.028 -0.134,0.12 -0.432,0.105 -0.611,0.105 l 0,0.268 c 0.805,0.015 1.595,0.045 2.384,0.045 0.998,0 2.593,-0.179 2.593,-1.505 0,-0.879 -0.745,-1.46 -1.535,-1.684 0.567,-0.67 2.354,-2.816 3.307,-2.816 0.909,0 1.163,0.388 1.163,1.267 l 0,3.158 c 0,0.954 -0.164,1.162 -1.133,1.311 l 0,0.239 c 0.865,0.015 1.729,0.03 2.593,0.03 2.16,0 4.365,-0.581 4.365,-3.144 0,-0.775 -0.342,-1.49 -0.894,-2.041 z m -15.211,3.963 c -0.433,0.67 -1.059,1.118 -1.878,1.118 -1.669,0 -2.205,-1.521 -2.205,-2.936 0,-0.685 0.12,-1.46 0.492,-2.041 0.431,-0.656 1.088,-1.102 1.892,-1.102 1.713,0 2.175,1.519 2.175,2.964 0,0.671 -0.119,1.431 -0.476,1.997 z m -1.818,-5.289 c -2.011,0 -3.516,1.326 -3.516,3.382 0,2.056 1.534,3.352 3.531,3.352 2.056,0 3.53,-1.311 3.53,-3.412 0,-2.026 -1.579,-3.322 -3.545,-3.322 z m -4.321,5.11 c -0.135,1.088 -1.132,1.043 -1.981,1.043 l -0.567,0 0,-2.414 0.656,0 c 0.387,0 0.774,0 1.147,0.06 l 0,-1.549 -0.223,0 c -0.06,1.177 -0.582,0.983 -1.58,0.983 l 0,-1.535 c 0,-1.102 0.134,-1.043 1.192,-1.237 l 0,-0.238 -6.198,0 -1.684,2.638 c -0.268,-0.328 -1.147,-1.52 -1.147,-1.893 0,-0.327 0.462,-0.432 0.7,-0.521 l -0.014,-0.224 -2.772,0 0,0.283 c 1.132,0.06 1.461,0.507 2.056,1.386 l 0.924,1.311 -0.998,1.654 c -0.447,0.73 -1.013,1.356 -1.922,1.371 l 0,0.283 2.1,0 1.55,-2.399 c 0.224,0.343 0.939,1.371 0.939,1.743 0,0.328 -0.432,0.343 -0.671,0.387 l 0,0.269 2.667,0 0,-0.269 c -1.073,-0.074 -1.475,-0.536 -2.041,-1.385 -0.224,-0.358 -0.447,-0.7 -0.685,-1.058 l 1.311,-2.042 c 0.402,-0.625 0.894,-1.251 1.713,-1.251 0.939,0 1.922,0.06 1.922,1.222 l 0,3.397 c 0,0.909 -0.193,1.028 -1.102,1.162 l 0,0.238 4.872,0 0.104,-1.415 -0.268,0 z m -14.512,0.179 c -0.432,0.67 -1.058,1.118 -1.862,1.118 -1.684,0 -2.221,-1.505 -2.221,-2.936 0,-0.685 0.12,-1.46 0.507,-2.041 0.432,-0.641 1.088,-1.088 1.877,-1.088 1.729,0 2.176,1.52 2.176,2.95 0,0.671 -0.119,1.431 -0.477,1.997 z m -1.803,-5.289 c -2.026,0 -3.531,1.326 -3.531,3.397 0,2.056 1.535,3.337 3.531,3.337 2.056,0 3.531,-1.296 3.531,-3.397 0,-2.041 -1.564,-3.337 -3.531,-3.337"
         style="fill:#ffffff;fill-opacity:1;fill-rule:nonzero;stroke:none"
         id="path4411"
         inkscape:connector-curvature="0" />
    </g>
  </g>
</svg>
